inDegrees=no
num_controls=7
num_derivatives=13
num_iterations=57
num_multipliers=7
num_parameters=0
num_slacks=7
num_states=26
objective=0.493843
objective_accelerations=0.004849
objective_balance=0.002310
objective_effort=0.003918
objective_height=0.454278
objective_ligament=0.028488
solver_duration=782.026441
status=Solve_Succeeded
success=true
DataType=double
version=3
OpenSimVersion=4.5
endheader
time	/jointset/ground_pelvis/pelvis_tilt/value	/jointset/ground_pelvis/pelvis_tx/value	/jointset/ground_pelvis/pelvis_ty/value	/jointset/hip_l/hip_flexion_l/value	/jointset/hip_l/hip_adduction_l/value	/jointset/hip_l/hip_rotation_l/value	/jointset/back/lumbar_extension/value	/jointset/patellofemoral_l/patellar_flexion_l/value	/jointset/knee_l/knee_flexion_l/value	/jointset/knee_l/knee_adduction_l/value	/jointset/knee_l/knee_rotation_l/value	/jointset/ankle_l/ankle_angle_l/value	/jointset/subtalar_l/subtalar_angle_l/value	/jointset/ground_pelvis/pelvis_tilt/speed	/jointset/ground_pelvis/pelvis_tx/speed	/jointset/ground_pelvis/pelvis_ty/speed	/jointset/hip_l/hip_flexion_l/speed	/jointset/hip_l/hip_adduction_l/speed	/jointset/hip_l/hip_rotation_l/speed	/jointset/back/lumbar_extension/speed	/jointset/patellofemoral_l/patellar_flexion_l/speed	/jointset/knee_l/knee_flexion_l/speed	/jointset/knee_l/knee_adduction_l/speed	/jointset/knee_l/knee_rotation_l/speed	/jointset/ankle_l/ankle_angle_l/speed	/jointset/subtalar_l/subtalar_angle_l/speed	/forceset/tau_hip_flexion_l	/forceset/tau_hip_adduction_l	/forceset/tau_hip_rotation_l	/forceset/tau_knee_flexion_l	/forceset/tau_ankle_angle_l	/forceset/tau_subtalar_angle_l	/forceset/tau_lumbar_extension	lambda_cid13_p0	lambda_cid13_p1	lambda_cid13_p2	lambda_cid13_p3	lambda_cid13_p4	lambda_cid13_p5	lambda_cid14_p0	/jointset/ground_pelvis/pelvis_tilt/accel	/jointset/ground_pelvis/pelvis_tx/accel	/jointset/ground_pelvis/pelvis_ty/accel	/jointset/hip_l/hip_flexion_l/accel	/jointset/hip_l/hip_adduction_l/accel	/jointset/hip_l/hip_rotation_l/accel	/jointset/back/lumbar_extension/accel	/jointset/patellofemoral_l/patellar_flexion_l/accel	/jointset/knee_l/knee_flexion_l/accel	/jointset/knee_l/knee_adduction_l/accel	/jointset/knee_l/knee_rotation_l/accel	/jointset/ankle_l/ankle_angle_l/accel	/jointset/subtalar_l/subtalar_angle_l/accel	gamma_cid13_p0	gamma_cid13_p1	gamma_cid13_p2	gamma_cid13_p3	gamma_cid13_p4	gamma_cid13_p5	gamma_cid14_p0
1	-0.01824344609435971	0.135318564439058	0.9098385020949652	0.1422054034462412	-0.2400969313995823	-0.2421775606984709	-0.1450990638979576	0.1190376919872625	0.1190376919872607	0.06922282261979583	-0.08554275779784111	0.1041521183865935	0.2296427921927931	-0.1435392540572221	0.04075193255812316	-0.003542911192808552	0.03059712642847371	0.02609347051810135	-0.02630870066526428	0.1393490568395623	-0.1414485905823208	-0.1414485905823233	0.01606067808592571	0.01860375901779568	-0.02825464716378808	0.01823474979002453	0.03357458442115717	0.06782012881180118	0.001572246912498669	-0.08494998898917813	0.03484128583526695	-0.05778754179959395	0.01217246808566018	-21.25169374253021	27.72396515954468	-3.451149761768632	1.146094347770648	-461.0924187614424	-21.05954590346592	-22.13736980575058	-0.001656138855629118	-0.01943092320832907	-0.004959275093659159	-0.00115523745839149	-0.01373623490748517	0.01312578669308384	0.0543960747107839	-0.04180086921131473	-0.04180086921131477	-0.04469589280199698	0.002420664537211696	-0.0492842196801725	-0.03804540658904298	-3.744139066635105e-10	2.602258738185523e-09	-3.354846740913258e-09	6.609948683646646e-10	-6.950814198431026e-10	3.012857065994048e-09	3.984495222557236e-10
1.01	-0.01967889343905088	0.1357251183093481	0.9098028236510005	0.142511297549072	-0.2398367320489013	-0.2424399849280644	-0.1437028926529023	0.1176211696721028	0.1176211696721163	0.06938111085084929	-0.08535662113684991	0.1038671372437121	0.2298231940348869	-0.1435479760823636	0.04055942338687307	-0.00359285130008886	0.03058056798653887	0.02594526008224658	-0.02617572937136741	0.1398820469273549	-0.1418516942094145	-0.141851694209415	0.01559595648364322	0.0186231854798016	-0.02873865230900576	0.01784556773925377	0.03336339115792039	0.06786006499367013	0.001533783527502768	-0.08414692861642126	0.0343381617399427	-0.0578187740671358	0.0121690480129021	-21.4075966855303	27.71830219846192	-3.397104635533162	1.126855275568553	-461.0833069556385	-21.05656538317663	-22.11484121013865	-0.0001443977545127592	-0.01907350175428706	-0.005022547425589512	-0.002075072255550005	-0.01553428004397217	0.01344581734242741	0.05227868924129489	-0.03893845302269997	-0.03893845302246483	-0.04751194253746295	0.00164485994602845	-0.04751924106561703	-0.03936223554532237	-3.627398732663467e-10	2.611427010569136e-09	-3.346095500420309e-09	6.476762018837322e-10	-5.707538427646585e-10	3.017154408714939e-09	3.950719415069253e-10
1.02	-0.02111436083667751	0.1361297645703916	0.9097666435721877	0.1428169922825694	-0.2395780489690002	-0.2427010668413919	-0.1423014858642787	0.1162007416520002	0.1162007416519879	0.0695347215361347	-0.08517030196661711	0.1035774039335533	0.2299997025302282	-0.1435432646439742	0.04037041070878006	-0.003643238162398279	0.03055725255681548	0.02579021636161546	-0.02604023741329115	0.140396165552257	-0.1422297315790767	-0.1422297315790754	0.01512516893751628	0.01864026085834815	-0.02920508061914566	0.01745608043951256	0.03315219789502722	0.06790000117549876	0.001495320142059477	-0.08334386824350039	0.0338350376446892	-0.05785000633468771	0.01216562794036872	-21.56354561456136	27.71237519000142	-3.342706610567262	1.108368814026125	-461.0764184569917	-21.05606976681292	-22.09202256150204	0.001030553850601638	-0.01873162457699272	-0.00504862609947558	-0.002506635016076559	-0.01510289186276147	0.01362991952894487	0.05062178213272567	-0.03678761772501787	-0.03678761772501618	-0.04590908157089863	0.001950447845290956	-0.0457688526647082	-0.03810645638317534	-3.927319633692911e-10	2.678019608677088e-09	-3.322420772648276e-09	6.66128267440198e-10	-5.613796821834208e-10	3.049208286981997e-09	3.86551207737147e-10
1.03	-0.02254967687462933	0.1365325318883877	0.9097299605778729	0.1431223838536613	-0.2393209471701796	-0.2429607810353212	-0.1408950869181216	0.1147766512189832	0.1147766512190153	0.069683598546864	-0.08498382161272595	0.1032830865887892	0.230172315223737	-0.1435139762262155	0.04018299954605218	-0.003693130466953262	0.03051648585897289	0.02562928085089603	-0.02590199497518999	0.1408749658337638	-0.1425845599584726	-0.1425845599584708	0.01464965701785835	0.01865571275682942	-0.02965606748060738	0.01706646668312724	0.03293666799538646	0.06794429623490471	0.001455011102579166	-0.08252274308022417	0.03330446571546413	-0.05788602030668743	0.01216117625979297	-21.72849378308299	27.70817861929055	-3.286389126177712	1.101026058362418	-461.0649420763312	-21.05040334432838	-22.06891493089688	0.004773002455609659	-0.01875372690677397	-0.004925108164992397	-0.005548067463077289	-0.01671818333248492	0.01401299522862832	0.0452104745137941	-0.03426126416143892	-0.03426126416132322	-0.04845855512391322	0.001327367739130725	-0.0444154247866575	-0.0393875956418191	-4.231492179977471e-10	2.745198169292431e-09	-3.298593764393803e-09	6.849045241399028e-10	-5.531785156480735e-10	3.081545395203609e-09	3.779779928140934e-10
